<?xml version="1.0" encoding="UTF-8"?><svg id="Layer_1" xmlns="http://www.w3.org/2000/svg" viewBox="0 0 683.88 542.88"><defs><style>.cls-1{fill:#f15a29;}.cls-2{fill:none;stroke:#231f20;stroke-miterlimit:10;}</style></defs><path class="cls-1" d="M191.81,200.21c.26,.44,.58,.86,.92,1.24,.21,.23,.43,.45,.67,.65,.66,.56,1.37,1.07,2.15,1.45,.29,.18,.6,.28,.93,.3,.33,.07,.66,.06,1-.04,.33-.08,.61-.23,.85-.45,.27-.18,.49-.41,.64-.7,.31-.58,.46-1.28,.25-1.93-.19-.59-.57-1.21-1.15-1.49-.49-.24-.96-.53-1.39-.86l.51,.39c-.42-.33-.81-.69-1.13-1.12l.39,.51c-.12-.15-.22-.31-.32-.48-.16-.29-.37-.53-.64-.7-.24-.22-.52-.37-.85-.45-.33-.1-.66-.12-1-.04-.33,.02-.64,.11-.93,.3-.53,.34-1,.86-1.15,1.49s-.09,1.33,.25,1.93h0Z"/><path class="cls-1" d="M193.35,264.37c.05-.09,.1-.18,.17-.26l-.39,.51c.14-.18,.31-.34,.49-.48l-.51,.39c.37-.29,.79-.51,1.17-.77,.26-.18,.5-.37,.75-.57,.09-.07,.18-.14,.26-.22s.16-.16,.23-.25c.19-.24,.41-.49,.56-.77,.32-.58,.43-1.28,.25-1.93-.08-.33-.23-.61-.45-.85-.18-.27-.41-.49-.7-.64-.58-.31-1.28-.46-1.93-.25s-1.18,.57-1.49,1.15c-.05,.09-.11,.18-.17,.26l.39-.51c-.14,.18-.31,.34-.49,.48l.51-.39c-.37,.29-.79,.51-1.17,.77-.26,.18-.5,.37-.75,.57-.09,.07-.18,.15-.26,.23s-.16,.16-.23,.25c-.19,.25-.41,.49-.56,.77-.31,.58-.43,1.28-.25,1.93,.08,.33,.23,.61,.45,.85,.18,.27,.41,.49,.7,.64,.58,.31,1.28,.46,1.93,.25,.61-.2,1.18-.57,1.49-1.15h0Z"/><path class="cls-1" d="M190.88,199.33c-2.48,2.76-4.18,6.22-5.78,9.55-1.7,3.55-3.04,7.25-3.61,11.16-.19,1.33,.33,2.69,1.75,3.08,1.17,.32,2.88-.4,3.08-1.75,.5-3.47,1.59-6.81,3.1-9.96,1.39-2.9,2.83-6.13,4.99-8.54,.9-1,.99-2.55,0-3.54-.92-.92-2.63-1.01-3.54,0h0Z"/><path class="cls-1" d="M194.77,200.45c-1.53,.27-2.72,1.55-3.13,3-.29,1.02,.18,2.31,1.15,2.82s2.19,.4,3.03-.39l.68-.64h-3.54l.09,.1-.73-1.77c.66-1.19,.78-1.56,.39-1.1-.18,.2-.36,.42-.51,.65-.23,.34-.37,.69-.53,1.08-.09,.24-.17,.47-.26,.71,.21-.57-.16,.25-.23,.36-.64,1.04-1.39,2-2.02,3.05-1.33,2.23-2.41,4.66-3.03,7.18-.31,1.27,.41,2.77,1.75,3.08s2.74-.39,3.08-1.75c.16-.64,.34-1.26,.55-1.88,.11-.33,.24-.65,.36-.97,.07-.18,.12-.28,.01-.04,.08-.18,.16-.35,.24-.53,.57-1.23,1.24-2.41,1.97-3.54,.78-1.2,1.63-2.27,2.14-3.62,.06-.15,.11-.3,.16-.45,.1-.33-.19,.38-.03,.08,.15-.26-.28,.23-.06,.07,.21-.15,.42-.49,.56-.7,.75-1.15,.53-2.53-.36-3.54s-2.6-.88-3.54,0l-.68,.64,4.18,2.43c.08-.27,.06-.23-.04,.1-.06,.13-.15,.23-.28,.3-.16,.11-.15,.11,.04,0-.32,.13-.35,.16-.08,.09,1.29-.23,2.14-1.87,1.75-3.08-.45-1.39-1.69-1.99-3.08-1.75h0Z"/><path class="cls-1" d="M185.4,217.6c-.99,2.46-1.66,5.17-2.06,7.79-.12,.79-.22,1.57-.22,2.37,0,.28,.01,.55,.01,.83,0,.18,0,.37,0,.55-.03,.32-.03,.37,0,.14-.1,.75-.31,1.47-.38,2.22-.06,.67-.04,1.34,0,2.01,.06,1.3,1.11,2.56,2.5,2.5,1.3-.06,2.56-1.1,2.5-2.5-.03-.66-.09-1.35,0-2.01-.05,.38,.08-.31,.1-.38,.1-.47,.18-.95,.23-1.43,.06-.55,.04-1.1,.04-1.65,0-.38,.01-.75,.03-1.12l.03-.29c-.03,.19-.03,.13,.03-.19,.42-2.52,1.07-5.13,2.02-7.5,.49-1.22-.53-2.8-1.75-3.08-1.45-.33-2.55,.44-3.08,1.75h0Z"/><path class="cls-1" d="M181.27,220.25c-1.15,6.5-2.37,13.15-1.02,19.74,.27,1.32,1.84,2.09,3.08,1.75,1.38-.38,2.02-1.75,1.75-3.08-.55-2.71-.44-5.64-.31-8.39,.14-2.92,.83-5.82,1.33-8.69,.24-1.33-.36-2.69-1.75-3.08-1.21-.33-2.84,.41-3.08,1.75h0Z"/><path class="cls-1" d="M183.15,233.51c-.25,1.08-.38,2.2-.3,3.31,.09,1.3,1.08,2.56,2.5,2.5s2.44-1.1,2.5-2.5c.02-.4,.04-.81,.05-1.21h-5c.1,3.51,.67,7.02,1.74,10.37,.4,1.24,1.75,2.17,3.08,1.75,1.25-.4,2.17-1.74,1.75-3.08-.49-1.54-.88-3.1-1.16-4.69-.04-.21-.07-.41-.1-.62-.01-.07-.1-.65-.05-.29s-.03-.22-.03-.29c-.02-.21-.05-.42-.07-.63-.08-.84-.13-1.68-.15-2.52-.04-1.31-1.12-2.56-2.5-2.5s-2.44,1.1-2.5,2.5c-.02,.4-.04,.81-.05,1.21h5c-.03-.41-.04-.82,0-1.23l.02-.2c.03-.29,.03-.27-.01,.05-.02-.18,.08-.43,.12-.6,.3-1.27-.39-2.77-1.75-3.08-1.28-.29-2.76,.38-3.08,1.75h0Z"/><path class="cls-1" d="M180.43,240.82c.73,7.88,3.42,15.48,8.04,21.92,1.27,1.78,3.83,1.52,4.57-.6,.12-.35,.24-.7,.37-1.05,.45-1.27-.51-2.73-1.75-3.08-1.38-.38-2.63,.47-3.08,1.75-.12,.35-.24,.7-.37,1.05l4.57-.6c-4.08-5.71-6.71-12.39-7.35-19.4-.12-1.34-1.06-2.5-2.5-2.5-1.26,0-2.62,1.15-2.5,2.5h0Z"/><path class="cls-1" d="M184.85,247c.7,2.55,1.55,5.04,2.55,7.49,.49,1.21,1.69,2.2,3.08,1.75,1.21-.39,2.21-1.76,1.75-3.08-.16-.44-.31-.88-.47-1.32l-4.82,1.33c1.05,2.7,2.36,5.27,4.02,7.65,.75,1.07,2.22,1.67,3.42,.9,1.06-.69,1.7-2.27,.9-3.42-.74-1.06-1.43-2.17-2.04-3.31-.3-.55-.58-1.12-.85-1.69-.13-.29-.26-.57-.39-.86-.16-.37,.12,.32-.02-.06-.07-.18-.15-.37-.22-.55-.47-1.21-1.7-2.19-3.08-1.75-1.21,.39-2.21,1.76-1.75,3.08,.16,.44,.31,.88,.47,1.32l4.82-1.33c-1-2.45-1.85-4.94-2.55-7.49-.35-1.26-1.79-2.16-3.08-1.75s-2.12,1.72-1.75,3.08h0Z"/><path class="cls-2" d="M191.19,266.51c-7.57-8.64-11.26-21.09-11.26-33.65s5.24-28.04,14.3-37.26m5.74,5.69c-7.3,8.36-11.88,19.61-11.88,31.57,0,10.24,3.63,20.45,9.14,28.21m-3.67-65.44l6.57,6.29m-2.83,58.5l-6.75,6"/></svg>